REM DIRINDEX 1\2\6,1\2\7,1\2\8,1\2\9,1\3\10,1\3\11,1\4\12,1\4\13,1\4\14,1\5\15,1\5\16,1\5\17
REM DIRNAME folder01,folder02,folder03,folder04,folder05,folder06,folder07,folder08,folder09,folder10,folder11,folder12,folder13,folder14,folder15,folder16,folder17
TITLE ""
FILE "1400_3_sec13_1216_1232.mp3" MP3
  TRACK 01 AUDIO
    TITLE "0:"
    INDEX 01 00:00:00
  TRACK 02 AUDIO
    TITLE "17:cjc029_6872"
    INDEX 01 00:00:15
  TRACK 03 AUDIO
    TITLE "0:"
    INDEX 01 00:01:44
  TRACK 04 AUDIO
    TITLE "16:cjc029_6873"
    INDEX 01 00:01:50
  TRACK 05 AUDIO
    TITLE "0:"
    INDEX 01 00:02:67
  TRACK 06 AUDIO
    TITLE "17:cjc029_6874"
    INDEX 01 00:03:51
  TRACK 07 AUDIO
    TITLE "0:"
    INDEX 01 00:05:01
  TRACK 08 AUDIO
    TITLE "16:cjc029_6875"
    INDEX 01 00:05:10
  TRACK 09 AUDIO
    TITLE "0:"
    INDEX 01 00:06:41
  TRACK 10 AUDIO
    TITLE "17:cjc029_6876"
    INDEX 01 00:07:25
  TRACK 11 AUDIO
    TITLE "0:"
    INDEX 01 00:08:52
  TRACK 12 AUDIO
    TITLE "16:cjc029_6877"
    INDEX 01 00:08:54
  TRACK 13 AUDIO
    TITLE "0:"
    INDEX 01 00:09:73
  TRACK 14 AUDIO
    TITLE "17:cjc029_6878"
    INDEX 01 00:10:61
  TRACK 15 AUDIO
    TITLE "0:"
    INDEX 01 00:11:68
  TRACK 16 AUDIO
    TITLE "16:cjc029_6879"
    INDEX 01 00:11:74
  TRACK 17 AUDIO
    TITLE "0:"
    INDEX 01 00:13:14
  TRACK 18 AUDIO
    TITLE "17:cjc029_6880"
    INDEX 01 00:13:71
  TRACK 19 AUDIO
    TITLE "0:"
    INDEX 01 00:15:13
  TRACK 20 AUDIO
    TITLE "16:cjc029_6881"
    INDEX 01 00:15:19
  TRACK 21 AUDIO
    TITLE "0:"
    INDEX 01 00:16:28
  TRACK 22 AUDIO
    TITLE "17:cjc029_6882"
    INDEX 01 00:17:12
  TRACK 23 AUDIO
    TITLE "0:"
    INDEX 01 00:18:31
  TRACK 24 AUDIO
    TITLE "16:cjc029_6883"
    INDEX 01 00:18:39
  TRACK 25 AUDIO
    TITLE "0:"
    INDEX 01 00:19:52
  TRACK 26 AUDIO
    TITLE "17:cjc029_6884"
    INDEX 01 00:20:34
  TRACK 27 AUDIO
    TITLE "0:"
    INDEX 01 00:25:31
  TRACK 28 AUDIO
    TITLE "16:cjc029_6885"
    INDEX 01 00:25:37
  TRACK 29 AUDIO
    TITLE "0:"
    INDEX 01 00:26:52
  TRACK 30 AUDIO
    TITLE "17:cjc029_6886"
    INDEX 01 00:27:38
  TRACK 31 AUDIO
    TITLE "0:"
    INDEX 01 00:28:55
  TRACK 32 AUDIO
    TITLE "16:cjc029_6887"
    INDEX 01 00:28:60
  TRACK 33 AUDIO
    TITLE "0:"
    INDEX 01 00:30:14
  TRACK 34 AUDIO
    TITLE "17:cjc029_6888"
    INDEX 01 00:30:73
  TRACK 35 AUDIO
    TITLE "0:"
    INDEX 01 00:32:29
  TRACK 36 AUDIO
    TITLE "16:cjc029_6889"
    INDEX 01 00:32:33
  TRACK 37 AUDIO
    TITLE "0:"
    INDEX 01 00:33:44
  TRACK 38 AUDIO
    TITLE "17:cjc029_6890"
    INDEX 01 00:34:28
  TRACK 39 AUDIO
    TITLE "0:"
    INDEX 01 00:35:59
  TRACK 40 AUDIO
    TITLE "16:cjc029_6891"
    INDEX 01 00:35:64
  TRACK 41 AUDIO
    TITLE "0:"
    INDEX 01 00:37:05
  TRACK 42 AUDIO
    TITLE "17:cjc029_6892"
    INDEX 01 00:37:63
  TRACK 43 AUDIO
    TITLE "0:"
    INDEX 01 00:39:07
  TRACK 44 AUDIO
    TITLE "16:cjc029_6893"
    INDEX 01 00:39:17
  TRACK 45 AUDIO
    TITLE "0:"
    INDEX 01 00:40:21
  TRACK 46 AUDIO
    TITLE "17:cjc029_6894"
    INDEX 01 00:41:06
  TRACK 47 AUDIO
    TITLE "0:"
    INDEX 01 00:42:14
  TRACK 48 AUDIO
    TITLE "16:cjc029_6895"
    INDEX 01 00:42:21
  TRACK 49 AUDIO
    TITLE "0:"
    INDEX 01 00:43:23
  TRACK 50 AUDIO
    TITLE "17:cjc029_6896"
    INDEX 01 00:44:05
  TRACK 51 AUDIO
    TITLE "0:"
    INDEX 01 00:45:26
  TRACK 52 AUDIO
    TITLE "16:cjc029_6897"
    INDEX 01 00:45:30
  TRACK 53 AUDIO
    TITLE "0:"
    INDEX 01 00:46:37
  TRACK 54 AUDIO
    TITLE "17:cjc029_6898"
    INDEX 01 00:47:23
  TRACK 55 AUDIO
    TITLE "0:"
    INDEX 01 00:48:67
  TRACK 56 AUDIO
    TITLE "16:cjc029_6899"
    INDEX 01 00:48:71
  TRACK 57 AUDIO
    TITLE "0:"
    INDEX 01 00:50:13
  TRACK 58 AUDIO
    TITLE "17:cjc029_6900"
    INDEX 01 00:51:01
  TRACK 59 AUDIO
    TITLE "0:"
    INDEX 01 00:52:10
  TRACK 60 AUDIO
    TITLE "16:cjc029_6901"
    INDEX 01 00:52:16
  TRACK 61 AUDIO
    TITLE "0:"
    INDEX 01 00:53:19
  TRACK 62 AUDIO
    TITLE "17:cjc029_6902"
    INDEX 01 00:54:05
  TRACK 63 AUDIO
    TITLE "0:"
    INDEX 01 00:55:40
  TRACK 64 AUDIO
    TITLE "16:cjc029_6903"
    INDEX 01 00:55:46
  TRACK 65 AUDIO
    TITLE "0:"
    INDEX 01 00:56:47
  TRACK 66 AUDIO
    TITLE "17:cjc029_6904"
    INDEX 01 00:57:31
  TRACK 67 AUDIO
    TITLE "0:"
    INDEX 01 00:58:22
  TRACK 68 AUDIO
    TITLE "16:cjc029_6905"
    INDEX 01 00:58:28
  TRACK 69 AUDIO
    TITLE "0:"
    INDEX 01 00:59:32
